<svg xmlns="http://www.w3.org/2000/svg" xmlns:xlink="http://www.w3.org/1999/xlink" width="160" zoomAndPan="magnify" viewBox="0 0 120 119.999999" height="160" preserveAspectRatio="xMidYMid meet" version="1.0"><defs><clipPath id="6d3342a383"><path d="M 0 26.878906 L 120 26.878906 L 120 86.066406 L 0 86.066406 Z M 0 26.878906 " clip-rule="nonzero"/></clipPath><clipPath id="479234d97b"><path d="M 109.523438 40.832031 L 116.921875 40.832031 L 116.921875 48.226562 L 109.523438 48.226562 Z M 109.523438 40.832031 " clip-rule="nonzero"/></clipPath></defs><g clip-path="url(#6d3342a383)"><rect x="-12" width="144" fill="#ffffff" y="-12" height="143.999998" fill-opacity="1"/></g><path fill="#000000" d="M 54.941406 59.941406 C 54.960938 59.886719 54.984375 59.796875 54.996094 59.761719 C 54.980469 59.8125 54.957031 59.871094 54.941406 59.941406 " fill-opacity="1" fill-rule="nonzero"/><path fill="#000000" d="M 46.367188 44.621094 C 47.324219 44.96875 46.417969 48.726562 46.695312 48.574219 C 46.777344 48.339844 46.878906 48.296875 47.003906 48.441406 C 48.089844 47.894531 47.996094 39.972656 47.148438 40.019531 C 46.59375 39.574219 46.324219 44.847656 46.367188 44.621094 C 46.335938 44.609375 46.382812 44.515625 46.367188 44.621094 " fill-opacity="1" fill-rule="nonzero"/><path fill="#000000" d="M 40.964844 47.855469 C 41.070312 47.816406 40.804688 47.96875 40.964844 47.855469 C 41.042969 47.824219 40.925781 47.878906 40.964844 47.855469 M 41.144531 48.226562 L 41.152344 48.21875 C 41.167969 48.222656 41.1875 48.21875 41.144531 48.226562 M 41.734375 48.359375 C 41.699219 48.367188 41.710938 48.363281 41.734375 48.359375 M 42.023438 48.988281 C 41.691406 46.359375 39.050781 41.589844 38.859375 41.679688 C 37.542969 40.714844 40.269531 45.398438 39.492188 44.96875 C 39.566406 44.449219 38.421875 41.460938 38.421875 42.292969 C 38.472656 42.292969 40.28125 49.183594 42.023438 48.988281 " fill-opacity="1" fill-rule="nonzero"/><path fill="#000000" d="M 39.507812 48.675781 C 39.523438 48.652344 39.457031 48.632812 39.425781 48.625 C 39.453125 48.640625 39.46875 48.703125 39.507812 48.675781 " fill-opacity="1" fill-rule="nonzero"/><path fill="#000000" d="M 38.257812 45.148438 C 38.304688 45.160156 38.308594 45.140625 38.257812 45.148438 C 38.269531 45.152344 38.257812 45.148438 38.257812 45.148438 " fill-opacity="1" fill-rule="nonzero"/><path fill="#000000" d="M 51.714844 48.996094 C 50.597656 50.8125 52.933594 47.894531 53.375 47.292969 C 53.554688 47.890625 49.15625 53.742188 53.332031 47.527344 C 51.308594 52.894531 52.46875 49.371094 53.816406 47.472656 C 53.425781 48.617188 52.773438 49.585938 51.859375 50.375 C 53.335938 49.601562 57.523438 43.1875 55.390625 41.789062 C 54.511719 41.214844 51.429688 49.261719 51.714844 48.996094 C 51.640625 49.113281 51.714844 48.996094 51.714844 48.996094 " fill-opacity="1" fill-rule="nonzero"/><path fill="#000000" d="M 36.4375 50.976562 C 36.386719 50.980469 36.351562 50.929688 36.351562 50.835938 C 36.4375 50.796875 36.445312 50.882812 36.4375 50.976562 M 31.714844 49.101562 C 32.316406 50.523438 35.097656 51.894531 36.558594 51.882812 C 35.097656 51.832031 37.503906 51.742188 37.496094 51.734375 C 37.375 51.839844 37.449219 51.910156 37.699219 51.9375 C 37.789062 51.332031 32.289062 47.183594 31.695312 47.65625 C 31.867188 49.183594 31.839844 49.5625 31.617188 48.804688 C 31.652344 48.902344 31.679688 49.003906 31.714844 49.101562 C 32.117188 50.054688 31.554688 48.589844 31.714844 49.101562 " fill-opacity="1" fill-rule="nonzero"/><path fill="#000000" d="M 34.558594 76.855469 C 34.570312 76.859375 34.585938 76.867188 34.59375 76.871094 C 34.589844 76.882812 34.574219 76.871094 34.558594 76.855469 M 34.460938 76.851562 C 34.398438 76.765625 34.390625 76.710938 34.480469 76.703125 C 34.476562 76.753906 34.46875 76.800781 34.460938 76.851562 C 34.398438 76.765625 34.472656 76.851562 34.460938 76.851562 M 38.859375 69.855469 C 39.058594 69.320312 34.957031 76.542969 34.351562 76.683594 C 34.230469 76.789062 35.316406 77.101562 35.125 76.882812 C 35.882812 76.34375 40.222656 71.289062 38.859375 69.855469 C 38.851562 69.882812 38.960938 69.964844 38.859375 69.855469 " fill-opacity="1" fill-rule="nonzero"/><path fill="#000000" d="M 45.457031 75.695312 C 44.730469 75.390625 45.613281 72.015625 45.070312 71.953125 C 45.273438 71.90625 45.292969 71.828125 45.109375 71.714844 C 44.207031 72.484375 43.570312 79.9375 44.875 80.324219 C 45.738281 80.476562 45.394531 76.183594 45.457031 75.695312 C 45.453125 75.695312 45.445312 75.808594 45.457031 75.695312 " fill-opacity="1" fill-rule="nonzero"/><path fill="#000000" d="M 53.015625 71.648438 C 52.34375 70.210938 52.925781 72.464844 52.265625 70.644531 C 52.371094 71.738281 52.746094 72.738281 53.378906 73.636719 C 52.746094 73.464844 49.863281 66.835938 53.199219 73.476562 C 49.496094 68.894531 52.09375 71.914062 53.035156 73.910156 C 52.246094 73.003906 51.71875 71.960938 51.464844 70.785156 C 51.464844 73.199219 55.167969 78.824219 57.832031 78.824219 C 57.832031 78.824219 52.78125 72.15625 53.015625 71.648438 C 52.613281 70.785156 53.015625 71.648438 53.015625 71.648438 " fill-opacity="1" fill-rule="nonzero"/><path fill="#000000" d="M 56.679688 67.691406 C 56.664062 67.695312 56.644531 67.703125 56.679688 67.671875 Z M 62.78125 71.355469 C 62.878906 69.152344 55.554688 67.441406 55.535156 67.457031 C 56.117188 67.070312 59.105469 70.136719 59.222656 69.964844 C 60.84375 70.132812 58.859375 69.671875 59.75 69.65625 C 59.835938 69.867188 62.414062 72.265625 62.78125 71.355469 C 62.804688 70.75 62.78125 71.355469 62.78125 71.355469 " fill-opacity="1" fill-rule="nonzero"/><path fill="#000000" d="M 9.789062 68.734375 L 9.789062 66.726562 C 9.789062 65.640625 9.84375 64.675781 9.953125 63.828125 C 10.070312 62.980469 10.21875 62.152344 10.414062 61.34375 C 10.601562 60.535156 10.832031 59.710938 11.109375 58.863281 C 11.386719 58.019531 11.679688 57.0625 11.984375 56 C 11.984375 55.949219 11.988281 55.855469 12 55.71875 C 12.011719 55.578125 12.023438 55.484375 12.023438 55.433594 C 12.074219 55.40625 11.851562 55.28125 11.359375 55.054688 C 10.867188 54.828125 10.265625 54.503906 9.554688 54.089844 C 8.847656 53.671875 8.078125 53.144531 7.242188 52.515625 C 6.414062 51.882812 5.648438 51.152344 4.953125 50.316406 C 4.261719 49.484375 3.703125 48.546875 3.285156 47.511719 C 2.867188 46.476562 2.710938 45.328125 2.8125 44.066406 C 2.839844 44.066406 2.90625 44.058594 3.023438 44.042969 C 3.132812 44.03125 3.261719 44.023438 3.398438 44.003906 C 3.535156 43.996094 3.667969 43.976562 3.796875 43.949219 L 4.023438 43.949219 C 4.199219 44.457031 4.441406 45.023438 4.742188 45.660156 C 5.046875 46.289062 5.421875 46.933594 5.859375 47.589844 C 6.304688 48.25 6.789062 48.886719 7.320312 49.503906 C 7.851562 50.125 8.414062 50.675781 9.007812 51.171875 C 9.601562 51.664062 10.21875 52.054688 10.867188 52.34375 C 11.507812 52.636719 12.171875 52.78125 12.851562 52.78125 C 13.3125 51.773438 13.671875 50.96875 13.9375 50.375 C 14.199219 49.78125 14.40625 49.320312 14.5625 48.992188 C 14.710938 48.664062 14.8125 48.414062 14.863281 48.253906 C 14.910156 48.089844 14.949219 47.910156 14.976562 47.722656 C 15 47.535156 15.027344 47.304688 15.054688 47.042969 C 15.078125 46.777344 15.144531 46.363281 15.242188 45.808594 C 15.242188 45.707031 15.34375 45.597656 15.546875 45.488281 C 15.746094 45.371094 15.957031 45.304688 16.171875 45.277344 C 16.382812 45.25 16.589844 45.277344 16.777344 45.355469 C 16.964844 45.425781 17.0625 45.582031 17.0625 45.808594 C 17.0625 47.199219 16.910156 48.519531 16.605469 49.769531 C 16.304688 51.019531 15.921875 52.238281 15.46875 53.425781 C 15.015625 54.613281 14.535156 55.792969 14.03125 56.96875 C 13.523438 58.140625 13.082031 59.351562 12.703125 60.585938 C 12.324219 61.824219 12.050781 63.113281 11.890625 64.453125 C 11.722656 65.792969 11.757812 67.21875 11.984375 68.734375 C 11.832031 69.011719 11.679688 69.210938 11.53125 69.324219 C 11.375 69.4375 11.175781 69.492188 10.921875 69.492188 C 10.667969 69.492188 10.453125 69.4375 10.28125 69.324219 C 10.101562 69.210938 9.9375 69.011719 9.789062 68.734375 " fill-opacity="1" fill-rule="nonzero"/><path fill="#000000" d="M 20.359375 60.851562 C 20.359375 61.636719 20.503906 62.390625 20.792969 63.109375 C 21.085938 63.828125 21.488281 64.453125 22.003906 64.984375 C 22.523438 65.515625 23.136719 65.9375 23.847656 66.253906 C 24.554688 66.566406 25.3125 66.726562 26.121094 66.726562 C 26.546875 66.777344 27.070312 66.710938 27.691406 66.515625 C 28.3125 66.328125 28.929688 66.050781 29.550781 65.6875 C 30.164062 65.316406 30.761719 64.875 31.332031 64.359375 C 31.898438 63.839844 32.371094 63.269531 32.75 62.65625 C 33.128906 62.035156 33.363281 61.390625 33.453125 60.71875 C 33.539062 60.050781 33.429688 59.378906 33.113281 58.710938 C 32.792969 58.042969 32.222656 57.398438 31.386719 56.78125 C 30.550781 56.160156 29.402344 55.585938 27.941406 55.054688 C 27.105469 55.054688 26.238281 55.175781 25.339844 55.414062 C 24.445312 55.65625 23.628906 56.015625 22.894531 56.496094 C 22.164062 56.972656 21.554688 57.582031 21.078125 58.3125 C 20.597656 59.046875 20.359375 59.894531 20.359375 60.851562 M 18.503906 61.15625 C 18.503906 59.765625 18.804688 58.554688 19.410156 57.515625 C 20.019531 56.480469 20.8125 55.613281 21.800781 54.902344 C 22.785156 54.195312 23.890625 53.671875 25.113281 53.332031 C 26.339844 52.988281 27.570312 52.820312 28.808594 52.820312 C 29.46875 52.820312 30.082031 52.941406 30.648438 53.179688 C 31.214844 53.421875 31.757812 53.746094 32.277344 54.164062 C 32.792969 54.582031 33.257812 55.058594 33.660156 55.605469 C 34.066406 56.148438 34.414062 56.707031 34.703125 57.289062 C 34.992188 57.871094 35.214844 58.460938 35.367188 59.054688 C 35.515625 59.644531 35.59375 60.222656 35.59375 60.777344 C 35.59375 62.0625 35.34375 63.214844 34.835938 64.226562 C 34.332031 65.238281 33.648438 66.089844 32.789062 66.78125 C 31.929688 67.480469 30.957031 68.011719 29.871094 68.375 C 28.78125 68.742188 27.675781 68.921875 26.535156 68.921875 C 25.375 68.921875 24.304688 68.742188 23.332031 68.375 C 22.359375 68.011719 21.511719 67.496094 20.792969 66.84375 C 20.074219 66.183594 19.515625 65.371094 19.105469 64.398438 C 18.703125 63.425781 18.503906 62.34375 18.503906 61.15625 " fill-opacity="1" fill-rule="nonzero"/><path fill="#000000" d="M 39.269531 60.851562 C 39.269531 61.636719 39.414062 62.390625 39.703125 63.109375 C 39.996094 63.828125 40.398438 64.453125 40.917969 64.984375 C 41.433594 65.515625 42.046875 65.9375 42.757812 66.253906 C 43.464844 66.566406 44.222656 66.726562 45.03125 66.726562 C 45.457031 66.777344 45.980469 66.710938 46.601562 66.515625 C 47.222656 66.328125 47.839844 66.050781 48.460938 65.6875 C 49.074219 65.316406 49.671875 64.875 50.242188 64.359375 C 50.808594 63.839844 51.28125 63.269531 51.660156 62.65625 C 52.039062 62.035156 52.273438 61.390625 52.359375 60.71875 C 52.449219 60.050781 52.339844 59.378906 52.023438 58.710938 C 51.703125 58.042969 51.132812 57.398438 50.296875 56.78125 C 49.460938 56.160156 48.3125 55.585938 46.851562 55.054688 C 46.015625 55.054688 45.148438 55.175781 44.25 55.414062 C 43.355469 55.65625 42.539062 56.015625 41.804688 56.496094 C 41.074219 56.972656 40.464844 57.582031 39.988281 58.3125 C 39.507812 59.046875 39.269531 59.894531 39.269531 60.851562 M 37.414062 61.15625 C 37.414062 59.765625 37.714844 58.554688 38.320312 57.515625 C 38.929688 56.480469 39.722656 55.613281 40.710938 54.902344 C 41.695312 54.195312 42.800781 53.671875 44.023438 53.332031 C 45.25 52.988281 46.480469 52.820312 47.71875 52.820312 C 48.378906 52.820312 48.992188 52.941406 49.554688 53.179688 C 50.125 53.421875 50.667969 53.746094 51.1875 54.164062 C 51.703125 54.582031 52.167969 55.058594 52.570312 55.605469 C 52.976562 56.148438 53.324219 56.707031 53.613281 57.289062 C 53.902344 57.871094 54.125 58.460938 54.277344 59.054688 C 54.425781 59.644531 54.503906 60.222656 54.503906 60.777344 C 54.503906 62.0625 54.253906 63.214844 53.746094 64.226562 C 53.238281 65.238281 52.558594 66.089844 51.699219 66.78125 C 50.839844 67.480469 49.867188 68.011719 48.78125 68.375 C 47.691406 68.742188 46.585938 68.921875 45.445312 68.921875 C 44.285156 68.921875 43.214844 68.742188 42.242188 68.375 C 41.269531 68.011719 40.421875 67.496094 39.703125 66.84375 C 38.984375 66.183594 38.421875 65.371094 38.019531 64.398438 C 37.617188 63.425781 37.414062 62.34375 37.414062 61.15625 " fill-opacity="1" fill-rule="nonzero"/><path fill="#000000" d="M 57.292969 49.410156 C 57.292969 49.128906 57.386719 48.960938 57.574219 48.894531 C 57.765625 48.835938 57.960938 48.800781 58.164062 48.800781 C 58.644531 48.800781 59.085938 49.078125 59.488281 49.636719 C 59.894531 50.191406 60.265625 50.84375 60.609375 51.585938 C 60.949219 52.332031 61.253906 53.078125 61.515625 53.824219 C 61.78125 54.566406 62.015625 55.144531 62.21875 55.546875 C 62.292969 55.699219 62.445312 56.015625 62.671875 56.496094 C 62.898438 56.972656 63.160156 57.542969 63.449219 58.199219 C 63.738281 58.859375 64.042969 59.546875 64.359375 60.265625 C 64.675781 60.984375 64.984375 61.675781 65.289062 62.328125 C 65.59375 62.988281 65.847656 63.5625 66.046875 64.054688 C 66.25 64.546875 66.386719 64.867188 66.460938 65.023438 C 66.617188 64.867188 66.769531 64.515625 66.9375 63.960938 C 67.101562 63.402344 67.277344 62.714844 67.46875 61.898438 C 67.65625 61.074219 67.839844 60.175781 68.015625 59.203125 C 68.191406 58.230469 68.375 57.246094 68.5625 56.25 C 68.757812 55.253906 68.949219 54.289062 69.15625 53.367188 C 69.355469 52.449219 69.558594 51.628906 69.757812 50.925781 C 69.960938 50.21875 70.15625 49.664062 70.351562 49.277344 C 70.539062 48.882812 70.730469 48.726562 70.9375 48.800781 C 71.3125 48.703125 71.578125 48.882812 71.734375 49.351562 C 71.882812 49.820312 71.945312 50.476562 71.921875 51.324219 C 71.894531 52.171875 71.792969 53.171875 71.617188 54.335938 C 71.441406 55.496094 71.207031 56.691406 70.914062 57.914062 C 70.625 59.140625 70.296875 60.371094 69.929688 61.609375 C 69.566406 62.847656 69.167969 63.972656 68.734375 64.984375 C 68.308594 65.996094 67.878906 66.855469 67.445312 67.5625 C 67.019531 68.269531 66.605469 68.722656 66.195312 68.921875 C 66.144531 68.921875 66.058594 68.917969 65.929688 68.90625 C 65.808594 68.894531 65.730469 68.886719 65.703125 68.886719 C 65.582031 68.636719 65.347656 68.199219 65.023438 67.578125 C 64.695312 66.960938 64.351562 66.300781 64 65.609375 C 63.644531 64.914062 63.320312 64.265625 63.015625 63.65625 C 62.710938 63.046875 62.507812 62.621094 62.40625 62.367188 C 62.257812 62.042969 62.023438 61.535156 61.707031 60.851562 C 61.390625 60.171875 61.042969 59.40625 60.664062 58.5625 C 60.285156 57.714844 59.898438 56.824219 59.507812 55.890625 C 59.117188 54.953125 58.75 54.0625 58.410156 53.21875 C 58.070312 52.371094 57.796875 51.613281 57.597656 50.941406 C 57.394531 50.273438 57.292969 49.765625 57.292969 49.410156 " fill-opacity="1" fill-rule="nonzero"/><path fill="#000000" d="M 74.636719 58.730469 C 74.636719 57.417969 74.828125 56.160156 75.222656 54.960938 C 75.613281 53.757812 76.179688 52.707031 76.925781 51.796875 C 77.671875 50.886719 78.582031 50.15625 79.65625 49.617188 C 80.726562 49.074219 81.972656 48.800781 83.386719 48.800781 C 84.222656 48.902344 84.949219 49.128906 85.566406 49.480469 C 86.1875 49.835938 86.691406 50.273438 87.082031 50.792969 C 87.476562 51.308594 87.757812 51.910156 87.9375 52.589844 C 88.085938 53.25 88.164062 53.957031 88.164062 54.714844 C 88.164062 55.625 87.898438 56.441406 87.367188 57.175781 C 86.835938 57.910156 86.164062 58.523438 85.359375 59.015625 C 84.550781 59.507812 83.675781 59.886719 82.742188 60.148438 C 81.804688 60.414062 80.9375 60.546875 80.128906 60.546875 L 79.199219 60.546875 C 78.882812 60.546875 78.601562 60.496094 78.347656 60.398438 C 78.09375 60.296875 77.894531 60.144531 77.738281 59.945312 C 77.589844 59.738281 77.511719 59.441406 77.511719 59.03125 C 77.511719 58.910156 77.535156 58.800781 77.570312 58.710938 C 77.605469 58.621094 77.714844 58.5625 77.894531 58.523438 C 78.070312 58.484375 78.335938 58.476562 78.691406 58.503906 C 79.039062 58.554688 79.519531 58.628906 80.128906 58.730469 C 80.484375 58.730469 80.992188 58.609375 81.664062 58.371094 C 82.332031 58.128906 83.011719 57.820312 83.710938 57.441406 C 84.40625 57.0625 85.003906 56.625 85.507812 56.132812 C 86.015625 55.640625 86.265625 55.152344 86.265625 54.675781 C 86.265625 54.167969 86.1875 53.671875 86.019531 53.179688 C 85.855469 52.6875 85.609375 52.25 85.28125 51.871094 C 84.953125 51.492188 84.566406 51.191406 84.125 50.960938 C 83.6875 50.734375 83.183594 50.644531 82.628906 50.699219 C 81.746094 50.769531 80.941406 51.015625 80.222656 51.417969 C 79.503906 51.820312 78.890625 52.34375 78.386719 52.988281 C 77.878906 53.632812 77.488281 54.347656 77.210938 55.128906 C 76.929688 55.910156 76.792969 56.734375 76.792969 57.59375 C 76.792969 58.25 76.804688 58.910156 76.832031 59.5625 C 76.855469 60.222656 76.953125 60.867188 77.113281 61.5 C 77.28125 62.128906 77.546875 62.734375 77.910156 63.3125 C 78.277344 63.894531 78.808594 64.410156 79.503906 64.851562 C 80.195312 65.292969 81.074219 65.660156 82.136719 65.953125 C 83.199219 66.242188 84.511719 66.421875 86.078125 66.5 L 92.859375 66.046875 C 92.457031 66.601562 91.945312 67.054688 91.328125 67.40625 C 90.707031 67.761719 90.050781 68.050781 89.355469 68.261719 C 88.660156 68.476562 87.972656 68.636719 87.289062 68.734375 C 86.609375 68.835938 85.964844 68.886719 85.359375 68.886719 C 83.890625 68.886719 82.515625 68.648438 81.226562 68.164062 C 79.941406 67.683594 78.800781 67.007812 77.816406 66.140625 C 76.832031 65.265625 76.054688 64.203125 75.488281 62.953125 C 74.917969 61.703125 74.636719 60.296875 74.636719 58.730469 " fill-opacity="1" fill-rule="nonzero"/><path fill="#000000" d="M 94.640625 58.730469 C 94.640625 57.417969 94.839844 56.160156 95.226562 54.960938 C 95.621094 53.757812 96.191406 52.707031 96.9375 51.796875 C 97.679688 50.886719 98.589844 50.15625 99.664062 49.617188 C 100.738281 49.074219 101.980469 48.800781 103.398438 48.800781 C 104.230469 48.902344 104.953125 49.128906 105.574219 49.480469 C 106.191406 49.835938 106.699219 50.273438 107.089844 50.792969 C 107.480469 51.308594 107.769531 51.910156 107.941406 52.589844 C 108.097656 53.25 108.171875 53.957031 108.171875 54.714844 C 108.171875 55.625 107.90625 56.441406 107.375 57.175781 C 106.847656 57.910156 106.175781 58.523438 105.367188 59.015625 C 104.558594 59.507812 103.6875 59.886719 102.75 60.148438 C 101.816406 60.414062 100.945312 60.546875 100.136719 60.546875 L 99.210938 60.546875 C 98.894531 60.546875 98.609375 60.496094 98.359375 60.398438 C 98.105469 60.296875 97.898438 60.144531 97.75 59.945312 C 97.601562 59.738281 97.523438 59.441406 97.523438 59.03125 C 97.523438 58.910156 97.539062 58.800781 97.578125 58.710938 C 97.617188 58.621094 97.722656 58.5625 97.898438 58.523438 C 98.078125 58.484375 98.34375 58.476562 98.695312 58.503906 C 99.050781 58.554688 99.53125 58.628906 100.136719 58.730469 C 100.488281 58.730469 101.003906 58.609375 101.671875 58.371094 C 102.339844 58.128906 103.023438 57.820312 103.71875 57.441406 C 104.410156 57.0625 105.011719 56.625 105.519531 56.132812 C 106.023438 55.640625 106.277344 55.152344 106.277344 54.675781 C 106.277344 54.167969 106.191406 53.671875 106.03125 53.179688 C 105.867188 52.6875 105.617188 52.25 105.289062 51.871094 C 104.964844 51.492188 104.578125 51.191406 104.136719 50.960938 C 103.691406 50.734375 103.195312 50.644531 102.640625 50.699219 C 101.753906 50.769531 100.953125 51.015625 100.234375 51.417969 C 99.511719 51.820312 98.898438 52.34375 98.390625 52.988281 C 97.886719 53.632812 97.496094 54.347656 97.21875 55.128906 C 96.941406 55.910156 96.804688 56.734375 96.804688 57.59375 C 96.804688 58.25 96.816406 58.910156 96.84375 59.5625 C 96.863281 60.222656 96.960938 60.867188 97.125 61.5 C 97.289062 62.128906 97.554688 62.734375 97.921875 63.3125 C 98.285156 63.894531 98.816406 64.410156 99.511719 64.851562 C 100.207031 65.292969 101.085938 65.660156 102.148438 65.953125 C 103.207031 66.242188 104.519531 66.421875 106.085938 66.5 L 112.871094 66.046875 C 112.464844 66.601562 111.953125 67.054688 111.335938 67.40625 C 110.71875 67.761719 110.058594 68.050781 109.363281 68.261719 C 108.671875 68.476562 107.980469 68.636719 107.300781 68.734375 C 106.617188 68.835938 105.972656 68.886719 105.367188 68.886719 C 103.902344 68.886719 102.523438 68.648438 101.234375 68.164062 C 99.945312 67.683594 98.8125 67.007812 97.828125 66.140625 C 96.84375 65.265625 96.0625 64.203125 95.492188 62.953125 C 94.929688 61.703125 94.640625 60.296875 94.640625 58.730469 " fill-opacity="1" fill-rule="nonzero"/><g clip-path="url(#479234d97b)"><path fill="#000000" d="M 112.792969 44.398438 L 113.199219 44.398438 C 113.675781 44.398438 114.066406 44.242188 114.066406 43.851562 C 114.066406 43.511719 113.8125 43.285156 113.269531 43.285156 C 113.042969 43.285156 112.882812 43.308594 112.792969 43.328125 Z M 112.769531 46.488281 L 111.90625 46.488281 L 111.90625 42.765625 C 112.246094 42.71875 112.726562 42.648438 113.335938 42.648438 C 114.039062 42.648438 114.359375 42.765625 114.609375 42.945312 C 114.835938 43.101562 114.996094 43.375 114.996094 43.742188 C 114.996094 44.195312 114.65625 44.488281 114.222656 44.625 L 114.222656 44.667969 C 114.585938 44.785156 114.769531 45.082031 114.882812 45.582031 C 114.996094 46.144531 115.085938 46.351562 115.152344 46.488281 L 114.246094 46.488281 C 114.132812 46.351562 114.066406 46.035156 113.949219 45.582031 C 113.882812 45.191406 113.65625 45.011719 113.179688 45.011719 L 112.769531 45.011719 Z M 110.472656 44.558594 C 110.472656 46.214844 111.722656 47.535156 113.378906 47.535156 C 114.996094 47.554688 116.222656 46.214844 116.222656 44.578125 C 116.222656 42.921875 114.996094 41.582031 113.335938 41.582031 C 111.722656 41.582031 110.472656 42.921875 110.472656 44.558594 Z M 117.179688 44.558594 C 117.179688 46.648438 115.496094 48.304688 113.359375 48.304688 C 111.222656 48.304688 109.523438 46.648438 109.523438 44.558594 C 109.523438 42.46875 111.222656 40.832031 113.378906 40.832031 C 115.496094 40.832031 117.179688 42.46875 117.179688 44.558594 " fill-opacity="1" fill-rule="nonzero"/></g></svg>