<svg xmlns="http://www.w3.org/2000/svg" viewBox="0 0 284.73 104.32"><defs><style>.cls-1{fill:#231f20;}</style></defs><g id="Layer_2" data-name="Layer 2"><g id="Layer_1-2" data-name="Layer 1"><path class="cls-1" d="M134.91,51.59c.05-.14.11-.38.14-.46A4.21,4.21,0,0,0,134.91,51.59Z"/><path class="cls-1" d="M112.72,12c2.48.9.14,10.63.85,10.22.22-.6.48-.72.81-.34,2.8-1.41,2.56-21.91.37-21.78-1.44-1.16-2.14,12.49-2,11.9C112.64,11.94,112.77,11.7,112.72,12Z"/><path class="cls-1" d="M101.49,23.27c-.86-6.8-7.69-19.14-8.18-18.91C89.9,1.86,97,14,94.94,12.87c.2-1.34-2.76-9.06-2.76-6.92C92.31,6,97,23.77,101.49,23.27Zm-.75-1.63Zm-1.52-.34,0,0S99.33,21.28,99.22,21.3Zm-.48-1c.29-.09-.4.3,0,0C99,20.26,98.65,20.4,98.74,20.33Z"/><path class="cls-1" d="M95,22.46c0-.07-.13-.11-.21-.13C94.84,22.37,94.88,22.53,95,22.46Z"/><path class="cls-1" d="M91.75,13.33c.12,0,.13,0,0,0Z"/><path class="cls-1" d="M126.55,23.29c-2.89,4.69,3.16-2.86,4.3-4.41.47,1.54-10.91,16.68-.11.61-5.24,13.88-2.24,4.77,1.25-.14a17.15,17.15,0,0,1-5.06,7.51c3.82-2,14.65-18.59,9.13-22.21-2.27-1.49-10.24,19.33-9.51,18.64Z"/><path class="cls-1" d="M74.84,23.56c1.54,3.68,8.74,7.23,12.51,7.19-3.77-.13,2.45-.36,2.43-.38-.31.28-.13.45.53.53.24-1.58-14-12.31-15.54-11.08.45,3.95.39,4.94-.2,3l.27.77C75.87,26,74.41,22.23,74.84,23.56Zm12.21,4.85c-.14,0-.23-.13-.22-.37C87.05,28,87.06,28.16,87.05,28.41Z"/><path class="cls-1" d="M93.31,77.24c.52-1.38-10.09,17.29-11.65,17.66-.33.26,2.49,1.08,2,.51,2-1.39,13.2-14.46,9.67-18.17C93.28,77.31,93.57,77.52,93.31,77.24ZM81.93,95.33c-.16-.22-.18-.36.06-.38l-.06.38C81.77,95.11,82,95.33,81.93,95.33Zm.25,0a.19.19,0,0,1,.09,0S82.22,95.39,82.18,95.34Z"/><path class="cls-1" d="M110.38,92.35c-1.89-.8.39-9.53-1-9.69.54-.11.58-.32.1-.62-2.32,2-4,21.27-.59,22.27,2.23.4,1.34-10.7,1.51-12C110.37,92.34,110.34,92.63,110.38,92.35Z"/><path class="cls-1" d="M129.92,81.88c-1.74-3.73-.23,2.1-1.94-2.6A16,16,0,0,0,130.86,87c-1.64-.45-9.09-17.58-.46-.41-9.58-11.86-2.87-4-.43,1.12a17.84,17.84,0,0,1-4.06-8.09c0,6.25,9.57,20.79,16.46,20.79,0,0-13.06-17.25-12.45-18.55Z"/><path class="cls-1" d="M155.17,81.12c.26-5.7-18.69-10.12-18.73-10.08C138,70,145.67,78,146,77.52c4.19.44-.94-.75,1.36-.8.22.55,6.88,6.75,7.83,4.4Zm-15.78-9.49s-.08,0,0,0Z"/><path class="cls-1" d="M18.11,74.34V69.15a57.6,57.6,0,0,1,.44-7.5q.45-3.28,1.18-6.42t1.81-6.42q1.08-3.29,2.26-7.4c0-.13,0-.38,0-.74a7,7,0,0,0,.05-.73c.13-.07-.44-.4-1.71-1s-2.83-1.42-4.66-2.5a64.65,64.65,0,0,1-6-4.07,36,36,0,0,1-5.92-5.68A27.06,27.06,0,0,1,1.3,19.45,19.31,19.31,0,0,1,.08,10.53a4.92,4.92,0,0,0,.54,0l1-.09c.35,0,.7-.09,1-.15h.59a42.6,42.6,0,0,0,1.87,4.41,39,39,0,0,0,2.89,5,53,53,0,0,0,3.77,5,36.15,36.15,0,0,0,4.36,4.31,21.29,21.29,0,0,0,4.81,3,12.38,12.38,0,0,0,5.14,1.13c1.18-2.62,2.11-4.69,2.79-6.23s1.23-2.73,1.62-3.58a18.61,18.61,0,0,0,.79-1.91A10.31,10.31,0,0,0,31.54,20c.06-.49.13-1.08.2-1.76s.22-1.75.49-3.19c0-.26.26-.54.78-.83a4.25,4.25,0,0,1,1.62-.54,3.19,3.19,0,0,1,1.57.2A1.14,1.14,0,0,1,36.93,15a43,43,0,0,1-1.18,10.24,75.73,75.73,0,0,1-2.94,9.46c-1.17,3.07-2.42,6.13-3.72,9.17a90,90,0,0,0-3.43,9.36,58.82,58.82,0,0,0-2.11,10,41.11,41.11,0,0,0,.25,11.08,4.79,4.79,0,0,1-1.18,1.52,2.59,2.59,0,0,1-1.57.44,3,3,0,0,1-1.66-.44A4,4,0,0,1,18.11,74.34Z"/><path class="cls-1" d="M40.66,54.74A18.26,18.26,0,0,1,43,45.33a21.77,21.77,0,0,1,6.17-6.76,27,27,0,0,1,8.58-4.07,35.55,35.55,0,0,1,9.55-1.33,12.14,12.14,0,0,1,4.76.94,17.89,17.89,0,0,1,4.21,2.54,20.44,20.44,0,0,1,3.58,3.73,29.35,29.35,0,0,1,2.7,4.36,22.58,22.58,0,0,1,1.71,4.56,18.06,18.06,0,0,1,.59,4.46,19.36,19.36,0,0,1-7.25,15.53,24.27,24.27,0,0,1-7.55,4.12,26.78,26.78,0,0,1-8.63,1.42,23.29,23.29,0,0,1-8.28-1.42,20.37,20.37,0,0,1-6.57-4,17.65,17.65,0,0,1-4.36-6.32A21.76,21.76,0,0,1,40.66,54.74Zm4.8-.79a15.52,15.52,0,0,0,1.12,5.84,15,15,0,0,0,3.14,4.85,15.33,15.33,0,0,0,4.75,3.28,14.23,14.23,0,0,0,5.89,1.23,10.16,10.16,0,0,0,4.06-.54,22.36,22.36,0,0,0,4.81-2.16A28.18,28.18,0,0,0,73.83,63a20.36,20.36,0,0,0,3.68-4.41,12.71,12.71,0,0,0,1.81-5,9.11,9.11,0,0,0-.88-5.19,13.79,13.79,0,0,0-4.46-5A35.28,35.28,0,0,0,65.06,39a25.92,25.92,0,0,0-6.71.93A21.78,21.78,0,0,0,52,42.68a16.11,16.11,0,0,0-4.7,4.71A11.69,11.69,0,0,0,45.46,54Z"/><path class="cls-1" d="M89.56,54.74a18.36,18.36,0,0,1,2.35-9.41,21.81,21.81,0,0,1,6.18-6.76,27,27,0,0,1,8.58-4.07,35.5,35.5,0,0,1,9.55-1.33,12.14,12.14,0,0,1,4.76.94,17.89,17.89,0,0,1,4.21,2.54,20.44,20.44,0,0,1,3.58,3.73,29.28,29.28,0,0,1,2.69,4.36,22.62,22.62,0,0,1,1.72,4.56,18.06,18.06,0,0,1,.59,4.46,19.33,19.33,0,0,1-7.26,15.53A24.11,24.11,0,0,1,119,73.41a26.78,26.78,0,0,1-8.63,1.42,23.26,23.26,0,0,1-8.28-1.42,20.16,20.16,0,0,1-6.57-4,17.65,17.65,0,0,1-4.36-6.32A21.57,21.57,0,0,1,89.56,54.74ZM94.37,54a15.52,15.52,0,0,0,1.12,5.84,14.86,14.86,0,0,0,3.14,4.85,15.33,15.33,0,0,0,4.75,3.28,14.21,14.21,0,0,0,5.88,1.23,10.21,10.21,0,0,0,4.07-.54,22.08,22.08,0,0,0,4.8-2.16A28.25,28.25,0,0,0,122.74,63a20.36,20.36,0,0,0,3.68-4.41,12.71,12.71,0,0,0,1.81-5,9.2,9.2,0,0,0-.88-5.19,13.88,13.88,0,0,0-4.46-5A35.28,35.28,0,0,0,114,39a26,26,0,0,0-6.72.93,21.73,21.73,0,0,0-6.32,2.79,16.11,16.11,0,0,0-4.7,4.71A11.69,11.69,0,0,0,94.37,54Z"/><path class="cls-1" d="M141,24.35c0-.72.25-1.16.74-1.32a4.84,4.84,0,0,1,1.52-.25,4.35,4.35,0,0,1,3.43,2.16,29.54,29.54,0,0,1,2.89,5c.88,1.93,1.66,3.85,2.35,5.78a42.79,42.79,0,0,0,1.81,4.46c.2.39.59,1.21,1.18,2.45s1.26,2.71,2,4.41l2.35,5.34q1.23,2.81,2.4,5.35t2,4.45c.52,1.28.89,2.11,1.08,2.51A7.43,7.43,0,0,0,165.93,62q.63-2.16,1.37-5.34t1.42-7c.46-2.52.93-5.06,1.42-7.65s1-5.06,1.52-7.44,1-4.5,1.57-6.33A27.16,27.16,0,0,1,174.75,24c.49-1,1-1.42,1.52-1.23,1-.26,1.66.22,2,1.43a15.34,15.34,0,0,1,.49,5.09,64,64,0,0,1-.78,7.79q-.69,4.52-1.81,9.27c-.76,3.17-1.6,6.35-2.55,9.55a82.15,82.15,0,0,1-3.09,8.73,52.79,52.79,0,0,1-3.33,6.66A9.1,9.1,0,0,1,164,74.83c-.14,0-.37,0-.69,0l-.59,0c-.33-.65-.92-1.78-1.76-3.38s-1.74-3.3-2.65-5.1-1.76-3.48-2.55-5-1.31-2.68-1.57-3.34L152.4,54q-1.23-2.64-2.69-5.93c-1-2.19-2-4.49-3-6.91s-2-4.72-2.84-6.91-1.58-4.15-2.1-5.88A14.75,14.75,0,0,1,141,24.35Z"/><path class="cls-1" d="M185.83,48.46a31.37,31.37,0,0,1,1.52-9.75,24.91,24.91,0,0,1,4.41-8.18,21.75,21.75,0,0,1,7.06-5.64,21.16,21.16,0,0,1,9.65-2.11,14.9,14.9,0,0,1,5.64,1.77A12.8,12.8,0,0,1,218,27.93a13,13,0,0,1,2.2,4.66,23.86,23.86,0,0,1,.59,5.48,10.57,10.57,0,0,1-2.06,6.38,17.66,17.66,0,0,1-5.19,4.75,27.59,27.59,0,0,1-6.76,2.94,24.78,24.78,0,0,1-6.77,1h-2.4a5.87,5.87,0,0,1-2.2-.39,3.54,3.54,0,0,1-1.57-1.18,3.91,3.91,0,0,1-.59-2.35,2,2,0,0,1,.15-.83c.1-.23.37-.4.83-.49a7.64,7.64,0,0,1,2.06,0c.91.13,2.16.32,3.72.58a12.93,12.93,0,0,0,4-.93,37.76,37.76,0,0,0,5.3-2.4A21.39,21.39,0,0,0,214,41.75a5.4,5.4,0,0,0,2-3.77,12,12,0,0,0-.64-3.87,9.77,9.77,0,0,0-1.91-3.39,9.89,9.89,0,0,0-3-2.35,6.9,6.9,0,0,0-3.87-.69,15.21,15.21,0,0,0-6.22,1.87,15.79,15.79,0,0,0-4.76,4.07,19.33,19.33,0,0,0-3,5.53,18.9,18.9,0,0,0-1.08,6.37c0,1.7,0,3.4.1,5.1a23.3,23.3,0,0,0,.73,5,16.71,16.71,0,0,0,2.06,4.7,12.88,12.88,0,0,0,4.12,4,24.57,24.57,0,0,0,6.81,2.85,48.38,48.38,0,0,0,10.19,1.42L233,67.38a12.62,12.62,0,0,1-4,3.53,25.42,25.42,0,0,1-5.1,2.2,35.37,35.37,0,0,1-5.34,1.23,34.42,34.42,0,0,1-5,.39,30.36,30.36,0,0,1-10.68-1.86,27.71,27.71,0,0,1-8.82-5.24,24.23,24.23,0,0,1-6-8.24A26.09,26.09,0,0,1,185.83,48.46Z"/><path class="cls-1" d="M237.58,48.46a31.37,31.37,0,0,1,1.52-9.75,24.91,24.91,0,0,1,4.41-8.18,21.75,21.75,0,0,1,7.06-5.64,21.16,21.16,0,0,1,9.65-2.11,14.9,14.9,0,0,1,5.64,1.77,12.69,12.69,0,0,1,3.92,3.38A13.14,13.14,0,0,1,272,32.59a24.44,24.44,0,0,1,.58,5.48,10.57,10.57,0,0,1-2.06,6.38,17.66,17.66,0,0,1-5.19,4.75,27.59,27.59,0,0,1-6.76,2.94,24.78,24.78,0,0,1-6.77,1h-2.4a5.91,5.91,0,0,1-2.2-.39,3.54,3.54,0,0,1-1.57-1.18,3.91,3.91,0,0,1-.59-2.35,2,2,0,0,1,.15-.83c.1-.23.37-.4.83-.49a7.64,7.64,0,0,1,2.06,0c.91.13,2.16.32,3.72.58a12.93,12.93,0,0,0,4-.93,37.76,37.76,0,0,0,5.3-2.4,21.39,21.39,0,0,0,4.65-3.38,5.4,5.4,0,0,0,2-3.77,12.25,12.25,0,0,0-.63-3.87,10,10,0,0,0-4.9-5.74,7,7,0,0,0-3.88-.69A15.21,15.21,0,0,0,252,29.55a15.63,15.63,0,0,0-4.75,4.07,19.35,19.35,0,0,0-3,5.53,18.9,18.9,0,0,0-1.08,6.37c0,1.7,0,3.4.1,5.1a23.3,23.3,0,0,0,.73,5,16.71,16.71,0,0,0,2.06,4.7,12.88,12.88,0,0,0,4.12,4A24.7,24.7,0,0,0,257,67.14a48.38,48.38,0,0,0,10.19,1.42l17.55-1.18a12.62,12.62,0,0,1-4,3.53,25.17,25.17,0,0,1-5.1,2.2,35.37,35.37,0,0,1-5.34,1.23,34.31,34.31,0,0,1-5,.39,30.36,30.36,0,0,1-10.68-1.86,27.71,27.71,0,0,1-8.82-5.24,24.23,24.23,0,0,1-6-8.24A26.09,26.09,0,0,1,237.58,48.46Z"/></g></g></svg>