<svg xmlns="http://www.w3.org/2000/svg" xmlns:xlink="http://www.w3.org/1999/xlink" width="500" zoomAndPan="magnify" viewBox="0 0 375 374.999991" height="500" preserveAspectRatio="xMidYMid meet" version="1.0"><defs><clipPath id="fa9c9523a6"><path d="M 125.386719 157.136719 L 252.136719 157.136719 L 252.136719 211.136719 L 125.386719 211.136719 Z M 125.386719 157.136719 " clip-rule="nonzero"/></clipPath><clipPath id="a0853d2f1e"><path d="M 234.667969 169.867188 L 241.417969 169.867188 L 241.417969 176.613281 L 234.667969 176.613281 Z M 234.667969 169.867188 " clip-rule="nonzero"/></clipPath></defs><g clip-path="url(#fa9c9523a6)"><path fill="#ffffff" d="M 112.5 262.5 L 262.5 262.5 L 262.5 112.5 L 112.5 112.5 Z M 112.5 262.5 " fill-opacity="1" fill-rule="nonzero"/></g><path fill="#000000" d="M 184.867188 187.300781 C 184.886719 187.25 184.90625 187.167969 184.917969 187.136719 C 184.902344 187.183594 184.882812 187.238281 184.867188 187.300781 " fill-opacity="1" fill-rule="nonzero"/><path fill="#000000" d="M 177.042969 173.324219 C 177.917969 173.640625 177.089844 177.070312 177.34375 176.929688 C 177.417969 176.714844 177.511719 176.675781 177.625 176.808594 C 178.617188 176.308594 178.53125 169.082031 177.757812 169.125 C 177.25 168.71875 177.003906 173.53125 177.042969 173.324219 C 177.015625 173.3125 177.058594 173.226562 177.042969 173.324219 " fill-opacity="1" fill-rule="nonzero"/><path fill="#000000" d="M 172.113281 176.273438 C 172.210938 176.238281 171.96875 176.378906 172.113281 176.273438 C 172.1875 176.246094 172.078125 176.296875 172.113281 176.273438 M 172.277344 176.613281 L 172.285156 176.605469 C 172.300781 176.609375 172.316406 176.605469 172.277344 176.613281 M 172.816406 176.734375 C 172.785156 176.742188 172.796875 176.738281 172.816406 176.734375 M 173.082031 177.308594 C 172.777344 174.910156 170.367188 170.558594 170.195312 170.640625 C 168.992188 169.757812 171.480469 174.03125 170.769531 173.640625 C 170.839844 173.167969 169.792969 170.441406 169.792969 171.199219 C 169.839844 171.199219 171.492188 177.484375 173.082031 177.308594 " fill-opacity="1" fill-rule="nonzero"/><path fill="#000000" d="M 170.785156 177.023438 C 170.800781 177 170.738281 176.984375 170.710938 176.976562 C 170.734375 176.992188 170.75 177.046875 170.785156 177.023438 " fill-opacity="1" fill-rule="nonzero"/><path fill="#000000" d="M 169.644531 173.804688 C 169.6875 173.816406 169.691406 173.796875 169.644531 173.804688 C 169.65625 173.808594 169.644531 173.804688 169.644531 173.804688 " fill-opacity="1" fill-rule="nonzero"/><path fill="#000000" d="M 181.921875 177.316406 C 180.902344 178.972656 183.035156 176.308594 183.4375 175.761719 C 183.601562 176.304688 179.589844 181.644531 183.398438 175.976562 C 181.550781 180.871094 182.609375 177.65625 183.839844 175.925781 C 183.484375 176.96875 182.890625 177.851562 182.054688 178.574219 C 183.402344 177.867188 187.222656 172.015625 185.277344 170.738281 C 184.476562 170.214844 181.664062 177.558594 181.921875 177.316406 C 181.855469 177.421875 181.921875 177.316406 181.921875 177.316406 " fill-opacity="1" fill-rule="nonzero"/><path fill="#000000" d="M 167.984375 179.121094 C 167.9375 179.125 167.90625 179.078125 167.90625 178.992188 C 167.984375 178.957031 167.992188 179.035156 167.984375 179.121094 M 163.675781 177.410156 C 164.222656 178.707031 166.761719 179.960938 168.09375 179.949219 C 166.761719 179.902344 168.957031 179.820312 168.949219 179.8125 C 168.839844 179.910156 168.90625 179.972656 169.136719 180 C 169.21875 179.445312 164.199219 175.660156 163.65625 176.09375 C 163.8125 177.484375 163.789062 177.832031 163.585938 177.140625 C 163.617188 177.230469 163.644531 177.320312 163.675781 177.410156 C 164.042969 178.28125 163.527344 176.945312 163.675781 177.410156 " fill-opacity="1" fill-rule="nonzero"/><path fill="#000000" d="M 166.269531 202.734375 C 166.28125 202.738281 166.292969 202.746094 166.300781 202.75 C 166.296875 202.757812 166.285156 202.75 166.269531 202.734375 M 166.179688 202.730469 C 166.125 202.652344 166.117188 202.601562 166.199219 202.59375 C 166.195312 202.640625 166.1875 202.683594 166.179688 202.730469 C 166.125 202.652344 166.191406 202.730469 166.179688 202.730469 M 170.195312 196.347656 C 170.375 195.859375 166.632812 202.449219 166.082031 202.578125 C 165.96875 202.671875 166.960938 202.957031 166.785156 202.757812 C 167.476562 202.265625 171.4375 197.65625 170.195312 196.347656 C 170.1875 196.371094 170.285156 196.445312 170.195312 196.347656 " fill-opacity="1" fill-rule="nonzero"/><path fill="#000000" d="M 176.214844 201.675781 C 175.550781 201.398438 176.355469 198.316406 175.859375 198.261719 C 176.046875 198.21875 176.0625 198.148438 175.894531 198.042969 C 175.074219 198.746094 174.492188 205.546875 175.683594 205.898438 C 176.46875 206.039062 176.15625 202.121094 176.214844 201.675781 C 176.210938 201.675781 176.203125 201.777344 176.214844 201.675781 " fill-opacity="1" fill-rule="nonzero"/><path fill="#000000" d="M 183.109375 197.984375 C 182.496094 196.671875 183.027344 198.726562 182.425781 197.066406 C 182.523438 198.066406 182.863281 198.976562 183.441406 199.796875 C 182.863281 199.640625 180.234375 193.59375 183.277344 199.652344 C 179.898438 195.46875 182.269531 198.226562 183.128906 200.046875 C 182.40625 199.21875 181.925781 198.269531 181.695312 197.195312 C 181.695312 199.398438 185.074219 204.53125 187.503906 204.53125 C 187.503906 204.53125 182.894531 198.445312 183.109375 197.984375 C 182.742188 197.195312 183.109375 197.984375 183.109375 197.984375 " fill-opacity="1" fill-rule="nonzero"/><path fill="#000000" d="M 186.453125 194.371094 C 186.4375 194.375 186.421875 194.382812 186.453125 194.355469 Z M 192.019531 197.714844 C 192.109375 195.707031 185.425781 194.144531 185.410156 194.160156 C 185.941406 193.804688 188.667969 196.605469 188.773438 196.445312 C 190.253906 196.601562 188.441406 196.179688 189.253906 196.164062 C 189.332031 196.359375 191.683594 198.546875 192.019531 197.714844 C 192.042969 197.164062 192.019531 197.714844 192.019531 197.714844 " fill-opacity="1" fill-rule="nonzero"/><path fill="#000000" d="M 143.667969 195.324219 L 143.667969 193.492188 C 143.667969 192.5 143.71875 191.621094 143.820312 190.847656 C 143.925781 190.074219 144.0625 189.320312 144.238281 188.582031 C 144.410156 187.84375 144.621094 187.089844 144.875 186.316406 C 145.128906 185.546875 145.394531 184.675781 145.671875 183.707031 C 145.671875 183.660156 145.675781 183.574219 145.6875 183.449219 C 145.699219 183.320312 145.707031 183.234375 145.707031 183.1875 C 145.753906 183.164062 145.550781 183.050781 145.101562 182.84375 C 144.652344 182.636719 144.105469 182.339844 143.457031 181.960938 C 142.8125 181.582031 142.109375 181.101562 141.347656 180.527344 C 140.589844 179.949219 139.890625 179.28125 139.257812 178.519531 C 138.625 177.761719 138.117188 176.90625 137.734375 175.960938 C 137.355469 175.015625 137.210938 173.96875 137.304688 172.816406 C 137.328125 172.816406 137.390625 172.808594 137.496094 172.796875 C 137.597656 172.785156 137.714844 172.777344 137.839844 172.761719 C 137.964844 172.753906 138.085938 172.734375 138.203125 172.710938 L 138.410156 172.710938 C 138.570312 173.171875 138.789062 173.691406 139.066406 174.269531 C 139.34375 174.84375 139.683594 175.433594 140.085938 176.03125 C 140.492188 176.632812 140.933594 177.214844 141.417969 177.777344 C 141.902344 178.34375 142.414062 178.847656 142.957031 179.300781 C 143.5 179.75 144.0625 180.105469 144.652344 180.371094 C 145.238281 180.636719 145.84375 180.769531 146.464844 180.769531 C 146.882812 179.847656 147.210938 179.113281 147.453125 178.574219 C 147.695312 178.03125 147.882812 177.609375 148.023438 177.3125 C 148.160156 177.011719 148.253906 176.785156 148.300781 176.636719 C 148.34375 176.488281 148.378906 176.324219 148.402344 176.152344 C 148.425781 175.980469 148.449219 175.773438 148.472656 175.53125 C 148.496094 175.289062 148.554688 174.914062 148.644531 174.40625 C 148.644531 174.3125 148.738281 174.214844 148.921875 174.113281 C 149.105469 174.007812 149.296875 173.945312 149.492188 173.921875 C 149.6875 173.898438 149.875 173.921875 150.046875 173.992188 C 150.21875 174.058594 150.304688 174.199219 150.304688 174.40625 C 150.304688 175.675781 150.167969 176.878906 149.890625 178.019531 C 149.613281 179.160156 149.265625 180.273438 148.851562 181.355469 C 148.4375 182.441406 148 183.515625 147.539062 184.589844 C 147.078125 185.660156 146.675781 186.761719 146.328125 187.890625 C 145.984375 189.019531 145.734375 190.195312 145.585938 191.417969 C 145.433594 192.640625 145.464844 193.941406 145.671875 195.324219 C 145.535156 195.578125 145.394531 195.757812 145.257812 195.863281 C 145.117188 195.964844 144.933594 196.015625 144.703125 196.015625 C 144.472656 196.015625 144.277344 195.964844 144.117188 195.863281 C 143.953125 195.757812 143.804688 195.578125 143.667969 195.324219 " fill-opacity="1" fill-rule="nonzero"/><path fill="#000000" d="M 153.3125 188.132812 C 153.3125 188.847656 153.445312 189.535156 153.710938 190.191406 C 153.976562 190.847656 154.34375 191.417969 154.816406 191.902344 C 155.289062 192.386719 155.847656 192.773438 156.496094 193.0625 C 157.140625 193.347656 157.832031 193.492188 158.570312 193.492188 C 158.960938 193.539062 159.4375 193.476562 160.003906 193.300781 C 160.570312 193.128906 161.132812 192.875 161.699219 192.542969 C 162.261719 192.207031 162.804688 191.804688 163.324219 191.332031 C 163.84375 190.859375 164.273438 190.339844 164.621094 189.777344 C 164.964844 189.210938 165.179688 188.625 165.261719 188.011719 C 165.339844 187.402344 165.238281 186.789062 164.949219 186.179688 C 164.660156 185.570312 164.136719 184.980469 163.375 184.417969 C 162.613281 183.851562 161.566406 183.328125 160.230469 182.84375 C 159.46875 182.84375 158.679688 182.953125 157.859375 183.171875 C 157.042969 183.390625 156.296875 183.71875 155.628906 184.15625 C 154.960938 184.59375 154.40625 185.148438 153.96875 185.816406 C 153.53125 186.484375 153.3125 187.257812 153.3125 188.132812 M 151.621094 188.410156 C 151.621094 187.140625 151.894531 186.035156 152.449219 185.089844 C 153.003906 184.144531 153.726562 183.351562 154.628906 182.703125 C 155.527344 182.058594 156.535156 181.582031 157.652344 181.269531 C 158.769531 180.957031 159.894531 180.804688 161.023438 180.804688 C 161.625 180.804688 162.183594 180.914062 162.703125 181.132812 C 163.21875 181.351562 163.714844 181.648438 164.1875 182.03125 C 164.660156 182.410156 165.082031 182.847656 165.449219 183.34375 C 165.820312 183.839844 166.136719 184.351562 166.402344 184.882812 C 166.664062 185.414062 166.867188 185.949219 167.007812 186.492188 C 167.144531 187.03125 167.214844 187.558594 167.214844 188.0625 C 167.214844 189.238281 166.984375 190.289062 166.523438 191.210938 C 166.0625 192.132812 165.4375 192.910156 164.65625 193.542969 C 163.871094 194.179688 162.984375 194.664062 161.992188 194.996094 C 161 195.332031 159.988281 195.496094 158.949219 195.496094 C 157.890625 195.496094 156.914062 195.332031 156.027344 194.996094 C 155.140625 194.664062 154.367188 194.195312 153.710938 193.597656 C 153.054688 192.996094 152.542969 192.253906 152.171875 191.367188 C 151.804688 190.480469 151.621094 189.492188 151.621094 188.410156 " fill-opacity="1" fill-rule="nonzero"/><path fill="#000000" d="M 170.566406 188.132812 C 170.566406 188.847656 170.699219 189.535156 170.964844 190.191406 C 171.230469 190.847656 171.597656 191.417969 172.070312 191.902344 C 172.542969 192.386719 173.101562 192.773438 173.75 193.0625 C 174.394531 193.347656 175.085938 193.492188 175.824219 193.492188 C 176.214844 193.539062 176.691406 193.476562 177.257812 193.300781 C 177.824219 193.128906 178.386719 192.875 178.953125 192.542969 C 179.515625 192.207031 180.058594 191.804688 180.578125 191.332031 C 181.097656 190.859375 181.527344 190.339844 181.875 189.777344 C 182.21875 189.210938 182.433594 188.625 182.511719 188.011719 C 182.59375 187.402344 182.492188 186.789062 182.203125 186.179688 C 181.914062 185.570312 181.390625 184.980469 180.628906 184.417969 C 179.867188 183.851562 178.820312 183.328125 177.484375 182.84375 C 176.722656 182.84375 175.933594 182.953125 175.113281 183.171875 C 174.296875 183.390625 173.550781 183.71875 172.882812 184.15625 C 172.214844 184.59375 171.660156 185.148438 171.222656 185.816406 C 170.785156 186.484375 170.566406 187.257812 170.566406 188.132812 M 168.875 188.410156 C 168.875 187.140625 169.148438 186.035156 169.703125 185.089844 C 170.257812 184.144531 170.980469 183.351562 171.882812 182.703125 C 172.78125 182.058594 173.789062 181.582031 174.90625 181.269531 C 176.023438 180.957031 177.148438 180.804688 178.277344 180.804688 C 178.878906 180.804688 179.4375 180.914062 179.953125 181.132812 C 180.472656 181.351562 180.96875 181.648438 181.441406 182.03125 C 181.914062 182.410156 182.335938 182.847656 182.703125 183.34375 C 183.074219 183.839844 183.390625 184.351562 183.65625 184.882812 C 183.917969 185.414062 184.121094 185.949219 184.261719 186.492188 C 184.398438 187.03125 184.46875 187.558594 184.46875 188.0625 C 184.46875 189.238281 184.238281 190.289062 183.777344 191.210938 C 183.3125 192.132812 182.691406 192.910156 181.910156 193.542969 C 181.125 194.179688 180.238281 194.664062 179.246094 194.996094 C 178.253906 195.332031 177.242188 195.496094 176.203125 195.496094 C 175.144531 195.496094 174.167969 195.332031 173.28125 194.996094 C 172.394531 194.664062 171.621094 194.195312 170.964844 193.597656 C 170.308594 192.996094 169.792969 192.253906 169.425781 191.367188 C 169.058594 190.480469 168.875 189.492188 168.875 188.410156 " fill-opacity="1" fill-rule="nonzero"/><path fill="#000000" d="M 187.011719 177.691406 C 187.011719 177.4375 187.097656 177.28125 187.269531 177.222656 C 187.445312 177.167969 187.621094 177.136719 187.808594 177.136719 C 188.246094 177.136719 188.648438 177.390625 189.015625 177.898438 C 189.386719 178.40625 189.726562 179 190.039062 179.679688 C 190.347656 180.359375 190.625 181.039062 190.867188 181.71875 C 191.109375 182.398438 191.320312 182.925781 191.507812 183.292969 C 191.574219 183.429688 191.714844 183.71875 191.921875 184.15625 C 192.128906 184.59375 192.367188 185.113281 192.628906 185.710938 C 192.894531 186.3125 193.171875 186.941406 193.460938 187.597656 C 193.75 188.253906 194.03125 188.882812 194.308594 189.480469 C 194.585938 190.082031 194.816406 190.605469 195 191.054688 C 195.183594 191.503906 195.308594 191.796875 195.378906 191.9375 C 195.519531 191.796875 195.660156 191.476562 195.8125 190.96875 C 195.960938 190.460938 196.121094 189.832031 196.296875 189.085938 C 196.46875 188.335938 196.636719 187.515625 196.796875 186.628906 C 196.957031 185.742188 197.125 184.84375 197.296875 183.933594 C 197.472656 183.023438 197.648438 182.144531 197.835938 181.304688 C 198.019531 180.464844 198.203125 179.71875 198.386719 179.074219 C 198.570312 178.429688 198.75 177.925781 198.925781 177.570312 C 199.097656 177.210938 199.273438 177.070312 199.460938 177.136719 C 199.804688 177.046875 200.046875 177.210938 200.1875 177.640625 C 200.324219 178.066406 200.382812 178.664062 200.359375 179.4375 C 200.335938 180.210938 200.242188 181.125 200.082031 182.1875 C 199.921875 183.246094 199.707031 184.335938 199.441406 185.453125 C 199.175781 186.570312 198.878906 187.695312 198.542969 188.824219 C 198.210938 189.953125 197.847656 190.980469 197.453125 191.902344 C 197.0625 192.824219 196.671875 193.609375 196.277344 194.253906 C 195.886719 194.898438 195.507812 195.3125 195.136719 195.496094 C 195.089844 195.496094 195.011719 195.492188 194.894531 195.480469 C 194.78125 195.46875 194.710938 195.464844 194.6875 195.464844 C 194.574219 195.234375 194.363281 194.835938 194.066406 194.269531 C 193.765625 193.707031 193.453125 193.105469 193.132812 192.472656 C 192.808594 191.839844 192.511719 191.246094 192.234375 190.691406 C 191.957031 190.136719 191.769531 189.746094 191.679688 189.515625 C 191.542969 189.21875 191.328125 188.753906 191.039062 188.132812 C 190.75 187.511719 190.433594 186.8125 190.089844 186.042969 C 189.742188 185.269531 189.390625 184.457031 189.035156 183.605469 C 188.675781 182.75 188.34375 181.9375 188.03125 181.167969 C 187.722656 180.394531 187.472656 179.703125 187.289062 179.089844 C 187.105469 178.480469 187.011719 178.015625 187.011719 177.691406 " fill-opacity="1" fill-rule="nonzero"/><path fill="#000000" d="M 202.835938 186.195312 C 202.835938 185 203.011719 183.851562 203.371094 182.757812 C 203.726562 181.660156 204.246094 180.699219 204.925781 179.871094 C 205.605469 179.039062 206.4375 178.375 207.417969 177.882812 C 208.394531 177.386719 209.53125 177.136719 210.820312 177.136719 C 211.582031 177.230469 212.246094 177.4375 212.808594 177.757812 C 213.375 178.082031 213.835938 178.480469 214.191406 178.953125 C 214.550781 179.425781 214.808594 179.972656 214.972656 180.59375 C 215.109375 181.195312 215.179688 181.839844 215.179688 182.53125 C 215.179688 183.363281 214.9375 184.109375 214.453125 184.777344 C 213.96875 185.449219 213.355469 186.007812 212.621094 186.457031 C 211.882812 186.90625 211.085938 187.25 210.234375 187.492188 C 209.378906 187.734375 208.585938 187.855469 207.847656 187.855469 L 207 187.855469 C 206.710938 187.855469 206.453125 187.808594 206.222656 187.71875 C 205.992188 187.625 205.808594 187.488281 205.667969 187.304688 C 205.53125 187.117188 205.460938 186.84375 205.460938 186.472656 C 205.460938 186.359375 205.480469 186.261719 205.515625 186.179688 C 205.546875 186.097656 205.644531 186.042969 205.808594 186.007812 C 205.96875 185.972656 206.210938 185.964844 206.535156 185.988281 C 206.855469 186.035156 207.292969 186.105469 207.847656 186.195312 C 208.171875 186.195312 208.636719 186.085938 209.25 185.867188 C 209.859375 185.648438 210.480469 185.367188 211.117188 185.019531 C 211.75 184.675781 212.296875 184.277344 212.757812 183.828125 C 213.21875 183.378906 213.449219 182.933594 213.449219 182.496094 C 213.449219 182.035156 213.375 181.582031 213.222656 181.132812 C 213.074219 180.683594 212.847656 180.285156 212.550781 179.9375 C 212.25 179.59375 211.898438 179.316406 211.496094 179.109375 C 211.09375 178.902344 210.636719 178.820312 210.128906 178.867188 C 209.324219 178.933594 208.589844 179.15625 207.933594 179.523438 C 207.277344 179.890625 206.71875 180.371094 206.257812 180.957031 C 205.796875 181.546875 205.4375 182.199219 205.1875 182.910156 C 204.929688 183.625 204.804688 184.375 204.804688 185.160156 C 204.804688 185.757812 204.816406 186.359375 204.839844 186.957031 C 204.863281 187.558594 204.949219 188.144531 205.097656 188.722656 C 205.25 189.296875 205.492188 189.851562 205.824219 190.378906 C 206.160156 190.910156 206.644531 191.378906 207.277344 191.78125 C 207.910156 192.183594 208.710938 192.519531 209.679688 192.785156 C 210.648438 193.050781 211.847656 193.214844 213.277344 193.285156 L 219.464844 192.871094 C 219.097656 193.378906 218.628906 193.792969 218.066406 194.113281 C 217.5 194.4375 216.902344 194.699219 216.265625 194.894531 C 215.632812 195.089844 215.003906 195.234375 214.382812 195.324219 C 213.761719 195.417969 213.171875 195.464844 212.621094 195.464844 C 211.28125 195.464844 210.027344 195.246094 208.851562 194.804688 C 207.675781 194.367188 206.636719 193.75 205.738281 192.957031 C 204.839844 192.160156 204.132812 191.191406 203.613281 190.050781 C 203.09375 188.910156 202.835938 187.625 202.835938 186.195312 " fill-opacity="1" fill-rule="nonzero"/><path fill="#000000" d="M 221.089844 186.195312 C 221.089844 185 221.269531 183.851562 221.625 182.757812 C 221.984375 181.660156 222.503906 180.699219 223.183594 179.871094 C 223.863281 179.039062 224.691406 178.375 225.671875 177.882812 C 226.652344 177.386719 227.785156 177.136719 229.078125 177.136719 C 229.839844 177.230469 230.5 177.4375 231.066406 177.757812 C 231.628906 178.082031 232.089844 178.480469 232.449219 178.953125 C 232.804688 179.425781 233.066406 179.972656 233.226562 180.59375 C 233.367188 181.195312 233.433594 181.839844 233.433594 182.53125 C 233.433594 183.363281 233.191406 184.109375 232.707031 184.777344 C 232.226562 185.449219 231.613281 186.007812 230.875 186.457031 C 230.136719 186.90625 229.34375 187.25 228.488281 187.492188 C 227.636719 187.734375 226.839844 187.855469 226.105469 187.855469 L 225.257812 187.855469 C 224.96875 187.855469 224.710938 187.808594 224.480469 187.71875 C 224.25 187.625 224.0625 187.488281 223.925781 187.304688 C 223.789062 187.117188 223.71875 186.84375 223.71875 186.472656 C 223.71875 186.359375 223.734375 186.261719 223.769531 186.179688 C 223.804688 186.097656 223.902344 186.042969 224.0625 186.007812 C 224.226562 185.972656 224.46875 185.964844 224.789062 185.988281 C 225.113281 186.035156 225.550781 186.105469 226.105469 186.195312 C 226.425781 186.195312 226.894531 186.085938 227.503906 185.867188 C 228.113281 185.648438 228.738281 185.367188 229.371094 185.019531 C 230.003906 184.675781 230.550781 184.277344 231.015625 183.828125 C 231.476562 183.378906 231.707031 182.933594 231.707031 182.496094 C 231.707031 182.035156 231.628906 181.582031 231.480469 181.132812 C 231.332031 180.683594 231.105469 180.285156 230.804688 179.9375 C 230.507812 179.59375 230.15625 179.316406 229.753906 179.109375 C 229.347656 178.902344 228.894531 178.820312 228.386719 178.867188 C 227.578125 178.933594 226.847656 179.15625 226.191406 179.523438 C 225.535156 179.890625 224.972656 180.371094 224.511719 180.957031 C 224.050781 181.546875 223.695312 182.199219 223.441406 182.910156 C 223.1875 183.625 223.0625 184.375 223.0625 185.160156 C 223.0625 185.757812 223.074219 186.359375 223.097656 186.957031 C 223.117188 187.558594 223.207031 188.144531 223.355469 188.722656 C 223.503906 189.296875 223.746094 189.851562 224.082031 190.378906 C 224.414062 190.910156 224.898438 191.378906 225.535156 191.78125 C 226.167969 192.183594 226.96875 192.519531 227.9375 192.785156 C 228.90625 193.050781 230.101562 193.214844 231.53125 193.285156 L 237.722656 192.871094 C 237.351562 193.378906 236.886719 193.792969 236.320312 194.113281 C 235.757812 194.4375 235.15625 194.699219 234.523438 194.894531 C 233.890625 195.089844 233.261719 195.234375 232.640625 195.324219 C 232.015625 195.417969 231.429688 195.464844 230.875 195.464844 C 229.539062 195.464844 228.28125 195.246094 227.105469 194.804688 C 225.929688 194.367188 224.894531 193.75 223.996094 192.957031 C 223.097656 192.160156 222.386719 191.191406 221.867188 190.050781 C 221.351562 188.910156 221.089844 187.625 221.089844 186.195312 " fill-opacity="1" fill-rule="nonzero"/><g clip-path="url(#a0853d2f1e)"><path fill="#000000" d="M 237.652344 173.121094 L 238.023438 173.121094 C 238.457031 173.121094 238.8125 172.976562 238.8125 172.621094 C 238.8125 172.3125 238.582031 172.105469 238.085938 172.105469 C 237.878906 172.105469 237.734375 172.125 237.652344 172.144531 Z M 237.628906 175.027344 L 236.84375 175.027344 L 236.84375 171.628906 C 237.152344 171.585938 237.589844 171.523438 238.148438 171.523438 C 238.789062 171.523438 239.082031 171.628906 239.308594 171.792969 C 239.515625 171.9375 239.660156 172.1875 239.660156 172.519531 C 239.660156 172.933594 239.351562 173.203125 238.957031 173.328125 L 238.957031 173.367188 C 239.289062 173.472656 239.453125 173.742188 239.558594 174.199219 C 239.660156 174.714844 239.742188 174.902344 239.804688 175.027344 L 238.976562 175.027344 C 238.875 174.902344 238.8125 174.613281 238.707031 174.199219 C 238.644531 173.84375 238.4375 173.679688 238.003906 173.679688 L 237.628906 173.679688 Z M 235.535156 173.265625 C 235.535156 174.777344 236.675781 175.980469 238.1875 175.980469 C 239.660156 176 240.78125 174.777344 240.78125 173.285156 C 240.78125 171.773438 239.660156 170.550781 238.148438 170.550781 C 236.675781 170.550781 235.535156 171.773438 235.535156 173.265625 Z M 241.652344 173.265625 C 241.652344 175.171875 240.117188 176.683594 238.167969 176.683594 C 236.21875 176.683594 234.667969 175.171875 234.667969 173.265625 C 234.667969 171.359375 236.21875 169.867188 238.1875 169.867188 C 240.117188 169.867188 241.652344 171.359375 241.652344 173.265625 " fill-opacity="1" fill-rule="nonzero"/></g></svg>